<svg width="1000" height="1000" viewBox="0 0 1000 1000" fill="none" xmlns="http://www.w3.org/2000/svg">
<circle cx="504" cy="496" r="313" fill="#014365"/>
<path d="M517.213 820.93L516.033 820.738C516.198 820.866 516.392 820.95 516.598 820.984C516.804 821.017 517.016 820.999 517.213 820.93ZM785.434 399.062C785.097 397.283 784.176 395.668 782.816 394.473C781.457 393.278 779.737 392.57 777.929 392.464C776.122 392.357 774.33 392.857 772.839 393.884C771.348 394.911 770.244 396.407 769.7 398.133C769.18 399.773 768.153 401.205 766.767 402.224C765.382 403.244 763.709 403.798 761.988 403.808H739.177C737.701 403.809 736.252 403.407 734.989 402.644L701.989 382.863C700.725 382.1 699.277 381.698 697.801 381.699H645.012C643.405 381.697 641.834 382.175 640.5 383.07L575.398 426.448C574.273 427.197 573.352 428.214 572.719 429.408C572.086 430.602 571.76 431.935 571.771 433.287V494.808C571.769 496.283 572.169 497.73 572.928 498.994C573.686 500.259 574.775 501.293 576.077 501.986L661.439 547.531C662.721 548.22 663.796 549.24 664.553 550.483C665.31 551.727 665.721 553.15 665.744 554.606L666.142 589.228C666.165 590.662 666.566 592.064 667.303 593.293C668.041 594.522 669.09 595.535 670.345 596.229L704.643 615.199C705.914 615.905 706.973 616.936 707.712 618.188C708.451 619.439 708.842 620.865 708.845 622.318V693.951C708.846 695.516 709.298 697.049 710.147 698.364C710.997 699.679 712.208 700.721 713.636 701.365C715.063 702.009 716.646 702.228 718.195 701.995C719.743 701.763 721.192 701.088 722.367 700.053C736.198 687.878 756.031 670.103 758.67 666.035C763.035 659.284 767.129 652.371 770.953 645.297C778.873 630.638 785.58 615.356 791.007 599.605C809.705 545.497 794.93 448.232 785.434 399.062ZM545.819 568.593L455.385 500.793C454.364 500.027 453.122 499.613 451.846 499.613H408.936C408.202 499.614 407.475 499.47 406.797 499.189C406.119 498.909 405.503 498.497 404.984 497.977L384.754 477.755C384.205 477.208 383.555 476.774 382.839 476.478C382.123 476.182 381.355 476.03 380.581 476.031H302.149C301.044 476.031 299.963 475.703 299.044 475.089C298.125 474.475 297.409 473.603 296.986 472.582C296.563 471.561 296.452 470.438 296.668 469.354C296.883 468.271 297.416 467.275 298.197 466.494L310.613 454.084C311.132 453.564 311.748 453.152 312.426 452.872C313.104 452.591 313.831 452.447 314.565 452.448H362.296C364.867 452.448 367.367 451.608 369.417 450.057C371.466 448.506 372.953 446.328 373.65 443.855L383.81 407.743C384.026 406.967 384.4 406.244 384.907 405.618C385.414 404.992 386.045 404.476 386.759 404.103L427.265 383.261C428.176 382.791 428.941 382.078 429.474 381.202C430.007 380.326 430.289 379.32 430.288 378.294V359.87C430.289 358.727 430.639 357.611 431.29 356.672L452.819 325.69C453.465 324.759 454.381 324.049 455.444 323.656L485.569 312.351C486.634 311.951 487.553 311.237 488.201 310.301C488.849 309.366 489.196 308.256 489.196 307.118V290.315C489.196 289.394 488.969 288.487 488.534 287.675C488.099 286.862 487.471 286.169 486.704 285.658L456.505 265.583C455.676 265.037 454.717 264.72 453.725 264.663C452.733 264.606 451.744 264.812 450.858 265.259L409.747 285.805C408.807 286.269 407.754 286.459 406.711 286.352C405.668 286.245 404.676 285.846 403.849 285.201L384.355 269.798C383.69 269.264 383.156 268.584 382.794 267.811C382.431 267.039 382.25 266.194 382.265 265.34C382.279 264.487 382.488 263.649 382.876 262.889C383.264 262.128 383.82 261.467 384.503 260.955L400.34 249.296C401.056 248.77 401.637 248.081 402.033 247.285C402.429 246.49 402.629 245.611 402.616 244.722C402.603 243.833 402.378 242.961 401.959 242.177C401.539 241.393 400.939 240.721 400.207 240.217L375.538 223.016C374.684 222.415 373.678 222.066 372.635 222.008C371.592 221.951 370.554 222.188 369.639 222.692C360.718 227.57 334.545 242.015 325.255 248.515C282.274 278.644 247.683 319.226 224.75 366.429C222.066 371.971 218.748 377.616 218.424 383.704C218.1 389.791 213.322 403.381 211.331 408.878C211.063 409.621 210.956 410.413 211.017 411.201C211.078 411.989 211.306 412.754 211.685 413.447L264.312 510.108C264.786 510.986 265.489 511.72 266.347 512.23L321.716 545.453C322.435 545.88 323.048 546.464 323.51 547.161C323.972 547.857 324.271 548.649 324.385 549.476L335.474 629.865C335.582 630.635 335.849 631.374 336.258 632.037C336.666 632.699 337.208 633.269 337.848 633.712L381.052 663.396C382.304 664.256 383.175 665.566 383.485 667.052L406.4 775.828C406.528 776.466 406.773 777.076 407.122 777.626C409.275 781.104 417.857 793.839 428.209 795.726C427.25 795.991 426.395 796.595 425.436 796.875C427.923 797.313 430.384 797.883 432.809 798.585C435.758 799.381 438.707 800.059 441.657 800.693C446.272 801.607 446.729 802.314 448.941 798.217C451.89 792.734 455.267 790.847 457.788 790.169C458.829 789.929 459.781 789.401 460.534 788.645C461.288 787.889 461.813 786.936 462.05 785.895L476.898 717.092C477.21 715.649 478.052 714.377 479.258 713.525L545.612 666.506C546.384 665.961 547.012 665.239 547.446 664.4C547.88 663.561 548.106 662.631 548.104 661.687V573.31C548.113 572.401 547.911 571.502 547.515 570.684C547.118 569.866 546.538 569.15 545.819 568.593Z" fill="#12D393"/>
<path d="M510.209 193C510.209 193 504.83 193.309 503.74 193.339C495.753 193.575 487.786 194.125 479.838 194.989C450.866 198.131 422.493 205.399 395.579 216.571C399.16 219.046 393 221.315 393 221.315L402.637 240.143H454.213L489.579 257.821L520.524 240.143L510.209 193ZM646.118 299.16L669.857 278.535C670.6 277.89 671.17 277.07 671.515 276.148C671.859 275.227 671.968 274.234 671.83 273.26C671.692 272.286 671.313 271.362 670.726 270.572C670.14 269.782 669.365 269.152 668.472 268.738L640.754 255.877C639.346 255.22 637.736 255.146 636.273 255.67C634.811 256.194 633.614 257.274 632.944 258.676L621.524 282.557C620.902 283.862 620.782 285.351 621.187 286.739C621.592 288.127 622.493 289.318 623.719 290.085L639.133 299.72C640.204 300.386 641.461 300.691 642.718 300.59C643.975 300.489 645.167 299.988 646.118 299.16ZM757.241 329.523L748.65 316.264C748.517 316.058 748.4 315.851 748.282 315.63C746.734 312.463 733.929 286.608 723.231 276.575C715.2 268.988 712.916 271.169 712.282 272.848C711.92 273.777 711.314 274.591 710.528 275.205L668.03 309.546C666.983 310.393 665.678 310.855 664.331 310.857H642.331C641.557 310.857 640.79 311.008 640.074 311.304C639.359 311.6 638.708 312.034 638.161 312.581L620.478 330.259C619.929 330.807 619.495 331.457 619.198 332.172C618.901 332.887 618.749 333.654 618.749 334.429C618.749 335.203 618.901 335.97 619.198 336.685C619.495 337.401 619.929 338.05 620.478 338.598L638.161 356.276C638.708 356.823 639.359 357.257 640.074 357.553C640.79 357.849 641.557 358.001 642.331 358H753.1C753.896 358.001 754.683 357.84 755.415 357.529C756.147 357.217 756.809 356.76 757.359 356.186C757.91 355.612 758.339 354.933 758.62 354.189C758.901 353.445 759.028 352.651 758.995 351.857L758.184 332.484C758.141 331.43 757.815 330.408 757.241 329.523Z" fill="#12D393"/>
<circle cx="504" cy="496" r="303" stroke="black" stroke-width="20"/>
<path d="M500.5 269.312C411.307 269.312 338.938 334.452 338.938 414.719C338.938 543.969 500.5 721.688 500.5 721.688C500.5 721.688 662.062 543.969 662.062 414.719C662.062 334.452 589.693 269.312 500.5 269.312ZM500.5 495.5C487.718 495.5 475.224 491.71 464.596 484.609C453.969 477.508 445.686 467.415 440.794 455.606C435.903 443.797 434.623 430.803 437.117 418.267C439.61 405.731 445.765 394.216 454.803 385.178C463.841 376.14 475.356 369.985 487.892 367.492C500.428 364.998 513.422 366.278 525.231 371.169C537.04 376.061 547.133 384.344 554.234 394.971C561.335 405.599 565.125 418.093 565.125 430.875C565.106 448.009 558.292 464.436 546.176 476.551C534.061 488.667 517.634 495.481 500.5 495.5Z" fill="#FF3333" stroke="white" stroke-width="20"/>
</svg>
